<?xml version="1.0" standalone="no"?>
<!DOCTYPE svg PUBLIC "-//W3C//DTD SVG 20010904//EN"
 "http://www.w3.org/TR/2001/REC-SVG-20010904/DTD/svg10.dtd">
<svg version="1.0" xmlns="http://www.w3.org/2000/svg"
 width="512.000000pt" height="512.000000pt" viewBox="0 0 512.000000 512.000000"
 preserveAspectRatio="xMidYMid meet">
<metadata>
Created by potrace 1.14, written by Peter Selinger 2001-2017
</metadata>
<g transform="translate(0.000000,512.000000) scale(0.100000,-0.100000)"
fill="#000000" stroke="none">
<path d="M4691 4769 c-56 -11 -63 -18 -53 -54 11 -41 3 -265 -13 -365 -2 -14
-7 -52 -10 -85 -3 -33 -7 -71 -10 -83 -3 -19 -11 -73 -41 -292 -12 -87 -27
-143 -71 -254 -49 -127 -71 -158 -218 -299 -403 -391 -875 -675 -1407 -847
-146 -47 -276 -79 -463 -115 -47 -9 -245 -35 -300 -40 -33 -3 -91 -7 -130 -11
-84 -7 -374 -6 -465 1 -36 2 -99 7 -140 10 -94 7 -161 15 -180 20 -8 3 -37 7
-65 10 -27 2 -86 11 -130 19 -44 9 -93 18 -110 21 -125 23 -376 86 -533 135
l-125 40 -111 -62 -111 -61 0 -116 0 -116 74 -100 c201 -270 423 -481 705
-670 l128 -85 -110 0 -109 0 -79 -80 c-43 -45 -82 -87 -87 -95 -5 -9 5 -56 24
-119 l32 -104 86 -64 c296 -218 655 -390 981 -472 48 -12 165 -38 185 -41 11
-2 47 -8 80 -13 54 -10 106 -16 215 -28 51 -5 396 -5 460 0 91 8 162 17 210
26 25 5 68 12 95 15 28 4 53 9 56 11 4 2 24 6 45 10 22 3 100 23 174 45 353
101 665 264 955 498 145 117 372 364 461 501 16 25 32 47 35 50 15 13 127 213
174 313 89 188 172 448 199 623 4 22 8 46 11 54 2 8 6 40 10 71 3 31 8 67 11
80 3 13 7 116 9 229 3 204 3 206 -30 345 -40 168 -100 354 -148 458 -27 58
-40 76 -58 80 -24 4 -24 4 1 6 24 1 25 3 26 83 0 117 12 176 54 287 45 117
162 294 222 339 20 15 16 31 -25 87 -112 157 -249 229 -386 204z m76 -1005
c-3 -3 -12 -4 -19 -1 -8 3 -5 6 6 6 11 1 17 -2 13 -5z"/>
</g>
</svg>
